<svg xmlns="http://www.w3.org/2000/svg" width="900" height="600" viewBox="0 0 900 600" role="img" aria-label="Probiotic water delivery illustration">
  <defs>
    <linearGradient id="waterGrad" x1="0" y1="0" x2="1" y2="1">
      <stop offset="0%" stop-color="#38bdf8"/>
      <stop offset="55%" stop-color="#2dd4bf"/>
      <stop offset="100%" stop-color="#14b8a6"/>
    </linearGradient>
    <radialGradient id="glow" cx="35%" cy="30%" r="70%">
      <stop offset="0%" stop-color="#99f6e4" stop-opacity="0.9"/>
      <stop offset="55%" stop-color="#2dd4bf" stop-opacity="0.25"/>
      <stop offset="100%" stop-color="#0ea5e9" stop-opacity="0"/>
    </radialGradient>
    <filter id="soft" x="-40%" y="-40%" width="180%" height="180%">
      <feGaussianBlur stdDeviation="10" result="blur"/>
      <feColorMatrix
        in="blur"
        type="matrix"
        values="1 0 0 0 0  0 1 0 0 0  0 0 1 0 0  0 0 0 0.7 0"
      />
    </filter>
    <style>
      .bg { fill: #f0fdfa; }
      .card { fill: rgba(255,255,255,0.85); stroke: rgba(13,148,136,0.22); stroke-width: 3; }
      .drop { filter: url(#soft); }
      .shine { opacity: 0.65; }
      .orbit { opacity: 0.95; }
      .particle { opacity: 0.85; }

      @media (prefers-reduced-motion: no-preference) {
        .particle { animation: float 3.8s ease-in-out infinite; }
        .particle.p2 { animation-duration: 4.6s; animation-delay: -1.2s; }
        .particle.p3 { animation-duration: 5.2s; animation-delay: -2.1s; }
        .particle.p4 { animation-duration: 4.1s; animation-delay: -0.6s; }
        .orbitRing { animation: spin 10s linear infinite; transform-origin: 450px 310px; }
        .shine { animation: shimmer 6s ease-in-out infinite alternate; }
      }

      @keyframes float {
        0%, 100% { transform: translateY(0); }
        50% { transform: translateY(-10px); }
      }
      @keyframes spin {
        from { transform: rotate(0deg); }
        to { transform: rotate(360deg); }
      }
      @keyframes shimmer {
        from { opacity: 0.35; }
        to { opacity: 0.75; }
      }
    </style>
  </defs>

  <rect class="bg" width="900" height="600"/>

  <!-- Glass panel -->
  <g transform="translate(110 70)">
    <rect class="card" x="0" y="0" width="680" height="460" rx="36"/>
    <rect x="18" y="18" width="644" height="424" rx="30" fill="rgba(14,165,233,0.06)"/>
  </g>

  <!-- Glow behind droplet -->
  <circle cx="450" cy="310" r="220" fill="url(#glow)" opacity="0.7"/>

  <!-- Droplet -->
  <g class="drop">
    <path
      d="M450 150c-90 120-120 190-120 270 0 78 52 130 120 130s120-52 120-130c0-80-30-150-120-270Z"
      fill="url(#waterGrad)"
    />
    <path
      class="shine"
      d="M420 240c-30 60-45 110-45 155 0 42 22 68 52 72-48-20-55-80-7-227Z"
      fill="#ffffff"
    />
  </g>

  <!-- Orbit + probiotic molecules -->
  <g class="orbit" transform="translate(0 0)">
    <g class="orbitRing">
      <ellipse cx="450" cy="310" rx="170" ry="110" fill="none" stroke="rgba(15,118,110,0.20)" stroke-width="3"/>
      <circle class="particle" cx="280" cy="310" r="10" fill="#99f6e4"/>
      <circle class="particle p2" cx="620" cy="310" r="8" fill="#38bdf8"/>
      <circle class="particle p3" cx="450" cy="200" r="7" fill="#2dd4bf"/>
      <circle class="particle p4" cx="520" cy="410" r="9" fill="#14b8a6"/>

      <!-- Simple molecule clusters -->
      <g transform="translate(315 245)">
        <circle r="6" fill="#0ea5e9"/>
        <circle cx="18" cy="10" r="4" fill="#2dd4bf"/>
        <circle cx="-14" cy="14" r="4" fill="#14b8a6"/>
        <path d="M0 0 18 10" stroke="rgba(15,118,110,0.45)" stroke-width="2"/>
        <path d="M0 0 -14 14" stroke="rgba(15,118,110,0.45)" stroke-width="2"/>
      </g>

      <g transform="translate(565 360)">
        <circle r="6" fill="#14b8a6"/>
        <circle cx="-16" cy="12" r="4" fill="#2dd4bf"/>
        <circle cx="14" cy="16" r="4" fill="#38bdf8"/>
        <path d="M0 0 -16 12" stroke="rgba(15,118,110,0.45)" stroke-width="2"/>
        <path d="M0 0 14 16" stroke="rgba(15,118,110,0.45)" stroke-width="2"/>
      </g>
    </g>
  </g>

  <!-- Label (subtle) -->
  <text x="140" y="150" font-family="ui-sans-serif, system-ui, -apple-system, Segoe UI, Roboto, Helvetica, Arial" font-size="26" font-weight="900" fill="#0f766e">Probiotic delivery</text>
  <text x="140" y="182" font-family="ui-sans-serif, system-ui, -apple-system, Segoe UI, Roboto, Helvetica, Arial" font-size="15" font-weight="700" fill="#0d9488">Water droplet + active particles (placeholder illustration)</text>
</svg>
