<svg xmlns="http://www.w3.org/2000/svg" width="220" height="60" viewBox="0 0 220 60" role="img" aria-label="Resonate Life Water">
  <defs>
    <linearGradient id="g" x1="0" y1="0" x2="1" y2="1">
      <stop offset="0" stop-color="#7cb342"/>
      <stop offset="1" stop-color="#1f5f3f"/>
    </linearGradient>
  </defs>

  <!-- Icon: leaf + water drop (simple, web-safe) -->
  <g transform="translate(8 6)">
    <path d="M22 2C14 12 10 20 10 28c0 9 6 16 16 16s16-7 16-16C42 20 38 12 30 2c-2-3-6-3-8 0Z" fill="url(#g)"/>
    <path d="M16 30c6 0 12-6 12-12 0-3-1-6-3-9 6 3 10 8 10 15 0 11-9 20-20 20-7 0-12-3-16-8 4 2 9 3 17 3Z" fill="#228b22" opacity="0.85"/>
    <path d="M18 33c7-2 13-8 16-15" fill="none" stroke="#ffffff" stroke-opacity="0.7" stroke-width="2" stroke-linecap="round"/>
  </g>

  <!-- Wordmark -->
  <g fill="#1f5f3f" transform="translate(64 37)">
    <text x="0" y="0" font-family="ui-sans-serif, system-ui, -apple-system, Segoe UI, Roboto, Helvetica, Arial" font-size="26" font-weight="800" letter-spacing="-0.4">Resonate</text>
    <text x="0" y="18" font-family="ui-sans-serif, system-ui, -apple-system, Segoe UI, Roboto, Helvetica, Arial" font-size="12" font-weight="700" fill="#2d8659" letter-spacing="1.2">LIFE WATER</text>
  </g>
</svg>
