<svg xmlns="http://www.w3.org/2000/svg" width="900" height="600" viewBox="0 0 900 600" role="img" aria-label="Monthly Wellness Refill">
  <defs>
    <linearGradient id="g" x1="0" y1="0" x2="1" y2="1">
      <stop offset="0" stop-color="#2d8659"/>
      <stop offset="1" stop-color="#7cb342"/>
    </linearGradient>
    <linearGradient id="bg" x1="0" y1="0" x2="1" y2="1">
      <stop offset="0" stop-color="#f2fbf6"/>
      <stop offset="1" stop-color="#ffffff"/>
    </linearGradient>
  </defs>
  <rect width="900" height="600" fill="url(#bg)"/>
  <circle cx="220" cy="160" r="130" fill="#e2f4ea"/>

  <g transform="translate(330 120)">
    <rect x="0" y="20" width="280" height="380" rx="40" fill="#ffffff" stroke="#cfeedd" stroke-width="8"/>
    <rect x="50" y="0" width="180" height="70" rx="24" fill="url(#g)"/>
    <rect x="54" y="118" width="172" height="28" rx="14" fill="#e6f6ee"/>
    <rect x="54" y="168" width="150" height="18" rx="9" fill="#d3efdf"/>
    <rect x="54" y="204" width="170" height="18" rx="9" fill="#d3efdf"/>
    <rect x="54" y="240" width="120" height="18" rx="9" fill="#d3efdf"/>
    <circle cx="140" cy="260" r="64" fill="#eef9f2"/>
    <path d="M140 222c-18 26-24 42-24 60 0 16 10 28 24 28s24-12 24-28c0-18-6-34-24-60Z" fill="#2d8659" opacity="0.9"/>
  </g>

  <text x="70" y="90" font-family="ui-sans-serif, system-ui, -apple-system, Segoe UI, Roboto, Helvetica, Arial" font-size="28" font-weight="900" fill="#1f5f3f">Monthly Refill</text>
  <text x="70" y="124" font-family="ui-sans-serif, system-ui, -apple-system, Segoe UI, Roboto, Helvetica, Arial" font-size="16" font-weight="600" fill="#2d8659">Placeholder product image (replace with photography)</text>
</svg>
